<?xml version="1.0" encoding="iso-8859-1"?>
<!-- Generator: Adobe Illustrator 19.0.0, SVG Export Plug-In . SVG Version: 6.00 Build 0)  -->
<svg version="1.1" id="Layer_1" xmlns="http://www.w3.org/2000/svg" xmlns:xlink="http://www.w3.org/1999/xlink" x="0px" y="0px"
	 viewBox="0 0 511.582 511.582" style="enable-background:new 0 0 511.582 511.582;" xml:space="preserve">
<g>
	<path style="fill:#39493F;" d="M114.55,0.002h282.483v413.934c0,6.091-3.134,11.75-8.298,14.98l-108.562,75.052
		c-14.671,10.152-34.092,10.152-48.764,0l-108.562-75.052c-5.164-3.231-8.298-8.889-8.298-14.98V0.002z"/>
	<g>
		<path style="fill:#F8D832;" d="M291.102,440.959c0-19.5-15.81-35.31-35.31-35.31s-35.31,15.81-35.31,35.31
			c0,19.5,15.81,35.31,35.31,35.31S291.102,460.459,291.102,440.959"/>
		<path style="fill:#F8D832;" d="M397.033,132.1l-141.241,88.276L114.55,132.1V79.134l141.241,88.276l141.241-88.276V132.1z"/>
		<path style="fill:#F8D832;" d="M397.033,238.031l-141.241,88.276L114.55,238.031v-52.966l141.241,88.276l141.241-88.276V238.031z"
			/>
	</g>
	<g>
		<path style="fill:#5E7767;" d="M167.515,0H114.55v79.13l52.966,33.103V0z"/>
		<path style="fill:#5E7767;" d="M344.067,0v112.234l52.966-33.103V0H344.067z"/>
		<path style="fill:#5E7767;" d="M344.067,459.795l44.668-30.879c5.164-3.231,8.298-8.889,8.298-14.972V238.028l-52.966,33.103
			V459.795z"/>
		<path style="fill:#5E7767;" d="M114.55,238.031v175.907c0,6.091,3.134,11.75,8.298,14.972l44.668,30.888V271.134L114.55,238.031z"
			/>
		<path style="fill:#5E7767;" d="M344.067,165.203v52.966l52.966-33.103V132.1L344.067,165.203z"/>
		<path style="fill:#5E7767;" d="M167.515,165.203L114.55,132.1v52.966l52.966,33.103V165.203z"/>
	</g>
</g>
<g>
</g>
<g>
</g>
<g>
</g>
<g>
</g>
<g>
</g>
<g>
</g>
<g>
</g>
<g>
</g>
<g>
</g>
<g>
</g>
<g>
</g>
<g>
</g>
<g>
</g>
<g>
</g>
<g>
</g>
</svg>
