<?xml version="1.0" encoding="iso-8859-1"?>
<!-- Generator: Adobe Illustrator 19.0.0, SVG Export Plug-In . SVG Version: 6.00 Build 0)  -->
<svg version="1.1" id="Layer_1" xmlns="http://www.w3.org/2000/svg" xmlns:xlink="http://www.w3.org/1999/xlink" x="0px" y="0px"
	 viewBox="0 0 511.581 511.581" style="enable-background:new 0 0 511.581 511.581;" xml:space="preserve">
<g>
	<path style="fill:#39493F;" d="M114.549,0h282.483v413.934c0,6.091-3.134,11.75-8.298,14.98l-108.562,75.052
		c-14.671,10.152-34.092,10.152-48.764,0l-108.562-75.052c-5.164-3.231-8.298-8.889-8.298-14.98V0z"/>
	<g>
		<path style="fill:#F8D832;" d="M291.101,440.958c0-19.5-15.81-35.31-35.31-35.31s-35.31,15.81-35.31,35.31
			s15.81,35.31,35.31,35.31S291.101,460.458,291.101,440.958"/>
		<path style="fill:#F8D832;" d="M114.549,184.958h282.483v-70.621H114.549V184.958z"/>
		<path style="fill:#F8D832;" d="M114.549,308.544h282.483v-70.621H114.549V308.544z"/>
	</g>
</g>
<g>
</g>
<g>
</g>
<g>
</g>
<g>
</g>
<g>
</g>
<g>
</g>
<g>
</g>
<g>
</g>
<g>
</g>
<g>
</g>
<g>
</g>
<g>
</g>
<g>
</g>
<g>
</g>
<g>
</g>
</svg>
