<?xml version="1.0" encoding="iso-8859-1"?>
<!-- Generator: Adobe Illustrator 19.0.0, SVG Export Plug-In . SVG Version: 6.00 Build 0)  -->
<svg version="1.1" id="Layer_1" xmlns="http://www.w3.org/2000/svg" xmlns:xlink="http://www.w3.org/1999/xlink" x="0px" y="0px"
	 viewBox="0 0 502.767 502.767" style="enable-background:new 0 0 502.767 502.767;" xml:space="preserve">
<path style="fill:#FFDD09;" d="M108.695,8.393h268.59v393.652c0,5.875-3.357,10.911-7.554,14.269l-103.239,71.344
	c-14.269,10.072-32.734,10.072-46.164,0l-104.079-71.344c-5.036-3.357-7.554-8.393-7.554-14.269V8.393z"/>
<path style="fill:#FCC309;" d="M141.43,436.459l17.626,10.072V9.233h-25.18v413.797C133.875,428.066,137.233,433.941,141.43,436.459
	"/>
<path style="fill:#FFFFFF;" d="M133.875,422.19V8.393h-25.18v393.652c0,5.875,3.357,10.911,7.554,14.269l19.305,13.429
	C134.715,427.226,133.875,424.708,133.875,422.19"/>
<path style="fill:#FCC309;" d="M326.925,446.531l17.626-9.233c5.036-3.357,7.554-8.393,7.554-14.269V9.233h-25.18V446.531z"/>
<path style="fill:#FD9808;" d="M352.105,8.393V422.19c0,2.518-0.839,5.036-1.679,7.554l19.305-13.429
	c5.036-3.357,7.554-8.393,7.554-14.269V8.393H352.105z"/>
<path style="fill:#FFDD09;" d="M377.285,0v413.797c0,2.518-0.839,5.036-1.679,7.554l19.305-13.43
	c5.036-3.357,7.554-8.393,7.554-14.269V13.43c0-6.715-5.875-13.43-13.429-13.43H377.285z"/>
<g>
	<path style="fill:#110E0E;" d="M242.99,502.767c-10.072,0-19.305-2.518-27.698-8.393L112.052,423.03
		c-7.554-4.197-11.751-12.59-11.751-20.984v-83.934c0-5.036,3.357-8.393,8.393-8.393s8.393,3.357,8.393,8.393v83.934
		c0,2.518,1.679,5.875,4.197,6.715l103.239,71.344c10.911,7.554,26.02,7.554,36.931,0l103.239-71.344
		c2.518-1.679,4.197-4.197,4.197-7.554V16.787H117.089v235.016c0,5.036-3.357,8.393-8.393,8.393s-8.393-3.357-8.393-8.393V8.393
		c0-5.036,3.357-8.393,8.393-8.393h268.59c5.036,0,8.393,3.357,8.393,8.393v393.652c0,8.393-4.197,16.787-11.751,20.984
		l-103.239,71.344C262.295,500.249,253.062,502.767,242.99,502.767z"/>
	<path style="fill:#110E0E;" d="M117.089,285.377c0-5.036-3.357-8.393-8.393-8.393s-8.393,3.357-8.393,8.393
		c0,5.036,3.357,8.393,8.393,8.393S117.089,290.413,117.089,285.377"/>
	<path style="fill:#110E0E;" d="M159.056,454.925c-1.679,0-3.357-0.839-5.036-1.679l-42.807-29.377
		c-6.715-4.197-10.911-12.59-10.911-20.984v-83.934c0-5.036,3.357-8.393,8.393-8.393s8.393,3.357,8.393,8.393v83.934
		c0,2.518,1.679,5.875,4.197,6.715l29.377,20.984V17.626h-33.574v151.082c0,5.036-3.357,8.393-8.393,8.393s-8.393-3.357-8.393-8.393
		V9.233c0-5.036,3.357-8.393,8.393-8.393h50.361c5.036,0,8.393,3.357,8.393,8.393v437.298c0,3.357-1.679,5.875-4.197,7.554
		C161.574,454.085,160.734,454.925,159.056,454.925z"/>
</g>
<path style="fill:#54C9FD;" d="M276.564,428.066c0-18.466-15.108-33.574-33.574-33.574s-33.574,15.108-33.574,33.574
	s15.108,33.574,33.574,33.574S276.564,446.531,276.564,428.066"/>
<polygon style="fill:#1CD759;" points="377.285,184.656 242.99,268.59 108.695,184.656 108.695,134.295 242.99,218.229 
	377.285,134.295 "/>
<g>
	<path style="fill:#110E0E;" d="M242.99,470.033c-23.502,0-41.967-18.466-41.967-41.967c0-23.502,18.466-41.967,41.967-41.967
		s41.967,18.466,41.967,41.967C284.957,451.567,266.492,470.033,242.99,470.033z M242.99,402.885
		c-14.269,0-25.18,10.911-25.18,25.18s10.911,25.18,25.18,25.18s25.18-10.911,25.18-25.18S257.259,402.885,242.99,402.885z"/>
	<path style="fill:#110E0E;" d="M242.99,276.984c-1.679,0-3.357-0.839-4.197-1.679L104.498,191.37
		c-2.518-0.839-4.197-3.357-4.197-6.715v-50.361c0-3.357,1.679-5.875,4.197-7.554c2.518-1.679,5.875-1.679,8.393,0l130.098,82.256
		l130.098-81.416c2.518-1.679,5.875-1.679,8.393,0c2.518,1.679,4.197,4.197,4.197,7.554v50.361c0,2.518-1.679,5.875-4.197,6.715
		l-134.295,83.934C246.348,276.984,244.669,276.984,242.99,276.984z M117.089,180.459l125.902,78.898l125.902-78.898v-30.216
		l-121.705,75.541c-2.518,1.679-5.875,1.679-9.233,0l-120.866-76.38V180.459z M377.285,184.656L377.285,184.656L377.285,184.656z"/>
	<path style="fill:#110E0E;" d="M326.925,454.925c-1.679,0-2.518,0-4.197-0.839c-2.518-1.679-4.197-4.197-4.197-7.554v-229.98
		c0-2.518,1.679-5.875,4.197-6.715l50.361-31.895c2.518-1.679,5.875-1.679,8.393,0c2.518,1.679,4.197,4.197,4.197,7.554v217.39
		c0,8.393-4.197,16.787-11.751,20.984l-41.967,29.377C330.282,454.085,328.603,454.925,326.925,454.925z M335.318,220.748v208.997
		l29.377-20.144c2.518-1.679,4.197-4.197,4.197-7.554V199.764L335.318,220.748z"/>
	<path style="fill:#110E0E;" d="M159.056,174.584c-1.679,0-3.357-0.839-4.197-1.679l-50.361-31.895
		c-2.518-0.839-4.197-3.357-4.197-6.715V8.393c0-5.036,3.357-8.393,8.393-8.393h50.361c5.036,0,8.393,3.357,8.393,8.393v156.957
		c0,3.357-1.679,5.875-4.197,7.554C161.574,173.744,160.734,174.584,159.056,174.584z M117.089,130.098l33.574,20.984V17.626
		h-33.574V130.098z"/>
	<path style="fill:#110E0E;" d="M326.925,173.744c-1.679,0-2.518,0-4.197-0.839c-2.518-1.679-4.197-4.197-4.197-7.554V8.393
		c0-5.036,3.357-8.393,8.393-8.393h50.361c5.036,0,8.393,3.357,8.393,8.393v125.902c0,2.518-1.679,5.875-4.197,6.715l-50.361,31.895
		C330.282,172.905,328.603,173.744,326.925,173.744z M335.318,16.787v133.456l33.574-20.984V16.787H335.318z"/>
</g>
<g>
</g>
<g>
</g>
<g>
</g>
<g>
</g>
<g>
</g>
<g>
</g>
<g>
</g>
<g>
</g>
<g>
</g>
<g>
</g>
<g>
</g>
<g>
</g>
<g>
</g>
<g>
</g>
<g>
</g>
</svg>
