<?xml version="1.0" encoding="iso-8859-1"?>
<!-- Generator: Adobe Illustrator 19.0.0, SVG Export Plug-In . SVG Version: 6.00 Build 0)  -->
<svg version="1.1" id="Layer_1" xmlns="http://www.w3.org/2000/svg" xmlns:xlink="http://www.w3.org/1999/xlink" x="0px" y="0px"
	 viewBox="0 0 503.607 503.607" style="enable-background:new 0 0 503.607 503.607;" xml:space="preserve">
<g transform="translate(1 1)">
	<path style="fill:#FFDD09;" d="M278.502,49.361L250.803,7.393l-27.698,41.967c-40.289,62.111-85.613,88.97-140.171,133.456v86.452
		v94.846v104.918l6.715-5.875c50.361-41.128,92.328-64.63,130.098-120.026l31.056-41.967l31.056,41.967
		c37.77,55.397,80.577,78.898,130.098,120.026l6.715,5.875V364.115v-94.846v-94.846C364.115,129.938,318.79,111.472,278.502,49.361"
		/>
	<path style="fill:#FD9808;" d="M443.852,493.374V389.295v-94.846v-94.846c-8.393-5.875-16.787-12.59-25.18-18.466v88.131v94.846
		v104.079L443.852,493.374z"/>
	<polygon style="fill:#FFFFFF;" points="65.308,488.338 57.754,493.374 57.754,389.295 57.754,294.449 57.754,199.603 
		82.934,182.816 82.934,269.269 82.934,364.115 82.934,468.193 	"/>
	<g>
		<path style="fill:#110E0E;" d="M443.852,302.843c-1.679,0-3.357-0.839-5.036-1.679l-7.554-5.875
			c-61.272-43.646-108.275-82.256-151.921-137.652l-28.538-35.252l-28.538,36.092c-43.646,55.397-90.649,93.167-151.921,137.652
			l-7.554,5.875c-2.518,1.679-5.875,1.679-8.393,0.839c-3.357-2.518-5.036-5.036-5.036-8.393v-94.846
			c0-2.518,1.679-5.036,3.357-6.715c26.02-18.466,46.164-34.413,64.63-49.521c3.357-3.357,9.233-2.518,11.751,0.839
			c3.357,3.357,2.518,9.233-0.839,11.751c-18.466,15.108-37.77,30.216-62.951,47.843v73.862
			c57.915-41.128,101.561-78.059,142.689-130.098l35.252-44.485c3.357-4.197,10.072-4.197,13.43,0l35.252,44.485
			c41.128,52.039,85.613,88.97,142.689,130.098V203.8c-53.718-38.61-110.793-83.934-159.475-149.403l-25.18-33.574l-25.18,33.574
			c-15.948,20.984-32.734,40.289-51.2,58.754c-3.357,3.357-8.393,3.357-11.751,0s-3.357-8.393,0-11.751
			c18.466-18.466,34.413-36.931,49.521-57.075l31.895-41.967C244.928-0.161,247.446-1,249.964-1l0,0
			c2.518,0,5.036,0.839,6.715,3.357l31.895,41.967c48.682,65.469,105.757,109.954,159.475,148.564
			c2.518,1.679,3.357,4.197,3.357,6.715v94.846c0,3.357-1.679,5.875-4.197,7.554C446.37,302.843,445.531,302.843,443.852,302.843z"
			/>
		<path style="fill:#110E0E;" d="M443.852,397.688c-1.679,0-3.357-0.839-5.036-1.679l-7.554-5.875
			c-61.272-43.646-108.275-82.256-151.921-137.652l-28.538-38.61l-28.538,38.61c-43.646,56.236-90.649,94.007-151.921,138.492
			l-7.554,5.875c-2.518,1.679-5.875,1.679-8.393,0.839c-3.357-2.518-5.036-5.036-5.036-8.393v-94.846
			c0-2.518,1.679-5.036,3.357-6.715l7.554-5.875c60.433-42.807,105.757-80.577,148.564-134.295l35.252-44.485
			c3.357-4.197,10.072-4.197,13.43,0l35.252,44.485c41.967,53.718,88.131,90.649,148.564,134.295l0,0l7.554,5.875
			c2.518,1.679,3.357,4.197,3.357,6.715v94.846c0,3.357-1.679,5.875-4.197,7.554C446.37,397.688,445.531,397.688,443.852,397.688z
			 M250.803,191.21c2.518,0,5.036,1.679,6.715,3.357l35.252,48.682c41.128,51.2,84.774,88.131,142.689,130.098v-73.862l-4.197-3.357
			c-61.272-43.646-108.275-82.256-151.921-137.652l-28.538-36.092l-28.538,36.092c-43.646,55.397-90.649,93.167-151.921,137.652
			l-4.197,2.518v73.862c57.915-41.128,101.561-78.059,142.689-130.098l35.252-47.843C245.767,192.889,248.285,191.21,250.803,191.21
			z"/>
		<path style="fill:#110E0E;" d="M443.852,502.607c-1.679,0-3.357-0.839-5.036-1.679l-7.554-5.875
			c-55.397-39.449-104.918-87.292-151.921-146.885l-28.538-34.413l-28.538,34.413c-47.003,59.593-96.525,107.436-151.921,146.885
			l-7.554,5.875c-2.518,1.679-5.875,1.679-8.393,0.839c-2.518-0.839-5.036-5.036-5.036-7.554V389.295
			c0-2.518,1.679-5.036,3.357-6.715l7.554-5.875c60.433-42.807,106.597-80.577,148.564-133.456l35.252-47.843
			c3.357-4.197,10.072-4.197,13.43,0l35.252,47.843c41.967,52.879,88.131,90.649,148.564,133.456l0,0l7.554,5.875
			c2.518,1.679,3.357,4.197,3.357,6.715v104.918c0,3.357-1.679,5.875-4.197,7.554C446.37,501.767,445.531,502.607,443.852,502.607z
			 M66.148,393.492v83.934c51.2-37.77,98.203-83.934,142.689-140.171l35.252-41.967c3.357-4.197,10.072-4.197,12.59,0l35.252,41.967
			c44.485,56.236,91.489,102.4,142.689,140.171v-83.934l-4.197-3.357l0,0c-61.272-43.646-108.275-82.256-151.921-137.652
			l-27.698-38.61l-28.538,38.61c-43.646,56.236-90.649,94.007-151.921,138.492L66.148,393.492z"/>
		<path style="fill:#110E0E;" d="M154.279,129.098c0-5.036-3.357-8.393-8.393-8.393s-8.393,3.357-8.393,8.393
			c0,5.036,3.357,8.393,8.393,8.393S154.279,133.295,154.279,129.098"/>
	</g>
</g>
<g>
</g>
<g>
</g>
<g>
</g>
<g>
</g>
<g>
</g>
<g>
</g>
<g>
</g>
<g>
</g>
<g>
</g>
<g>
</g>
<g>
</g>
<g>
</g>
<g>
</g>
<g>
</g>
<g>
</g>
</svg>
