<?xml version="1.0" encoding="iso-8859-1"?>
<!-- Generator: Adobe Illustrator 19.0.0, SVG Export Plug-In . SVG Version: 6.00 Build 0)  -->
<svg version="1.1" id="Layer_1" xmlns="http://www.w3.org/2000/svg" xmlns:xlink="http://www.w3.org/1999/xlink" x="0px" y="0px"
	 viewBox="0 0 512 512" style="enable-background:new 0 0 512 512;" xml:space="preserve">
<g transform="translate(1 1)">
	<polygon style="fill:#FFDD09;" points="255,15.708 33.133,211.975 33.133,322.908 33.133,408.242 33.133,476.508 255,271.708 
		476.867,476.508 476.867,408.242 476.867,322.908 476.867,211.975 	"/>
	<polygon style="fill:#FD9808;" points="476.867,214.535 476.867,322.908 476.867,408.242 476.867,470.535 502.467,493.575 
		502.467,408.242 502.467,322.908 502.467,237.575 	"/>
	<polygon style="fill:#FFFFFF;" points="33.133,408.242 33.133,322.908 33.133,214.535 7.533,237.575 7.533,322.908 7.533,408.242 
		7.533,493.575 33.133,470.535 	"/>
	<g>
		<path style="fill:#110E0E;" d="M502.467,416.775c-1.707,0-4.267-0.853-5.973-2.56L255,198.322L13.507,415.068
			c-2.56,1.707-5.973,2.56-9.387,0.853c-3.413-0.853-5.12-4.267-5.12-7.68v-85.333c0-2.56,0.853-5.12,2.56-5.973L249.027,95.068
			c3.413-2.56,8.533-2.56,11.093,0l247.467,221.867c1.707,1.707,2.56,4.267,2.56,5.973v85.333c0,3.413-1.707,6.827-5.12,7.68
			C505.027,416.775,503.32,416.775,502.467,416.775z M255,177.842c1.707,0,4.267,0.853,5.973,2.56l232.96,209.067v-62.293
			L255,112.988L16.067,327.175v62.293l232.96-209.067C250.733,178.695,253.293,177.842,255,177.842z"/>
		<path style="fill:#110E0E;" d="M502.467,502.108c-1.707,0-4.267-0.853-5.973-2.56L255,283.655L13.507,500.402
			c-2.56,1.707-5.973,2.56-9.387,0.853c-3.413-0.853-5.12-4.267-5.12-7.68v-85.333c0-2.56,0.853-5.12,2.56-5.973l247.467-221.867
			c3.413-2.56,8.533-2.56,11.093,0l247.467,221.867c1.707,1.707,2.56,4.267,2.56,5.973v85.333c0,3.413-1.707,6.827-5.12,7.68
			C505.027,502.108,503.32,502.108,502.467,502.108z M255,263.175c1.707,0,4.267,0.853,5.973,2.56l232.96,209.067v-62.293
			L255,198.322L16.067,412.508v62.293l232.96-209.067C250.733,264.028,253.293,263.175,255,263.175z"/>
		<path style="fill:#110E0E;" d="M502.467,331.442c-1.707,0-4.267-0.853-5.973-2.56L255,112.988L13.507,329.735
			c-2.56,1.707-5.973,2.56-9.387,0.853c-3.413-0.853-5.12-4.267-5.12-7.68v-85.333c0-2.56,0.853-5.12,2.56-5.973l76.8-69.12
			c3.413-3.413,8.533-2.56,11.947,0.853s2.56,8.533-0.853,11.947l-73.387,66.56v62.293l232.96-209.067
			c3.413-2.56,8.533-2.56,11.093,0l233.813,209.067v-62.293L255,27.655L137.24,133.468c-3.413,3.413-8.533,2.56-11.947-0.853
			c-3.413-3.413-2.56-8.533,0.853-11.947L249.88,9.735c3.413-2.56,8.533-2.56,11.093,0L508.44,231.602
			c1.707,1.707,2.56,4.267,2.56,5.973v85.333c0,3.413-1.707,6.827-5.12,7.68C505.027,331.442,503.32,331.442,502.467,331.442z"/>
		<path style="fill:#110E0E;" d="M116.76,146.268c0-5.12-3.413-8.533-8.533-8.533s-8.533,3.413-8.533,8.533s3.413,8.533,8.533,8.533
			S116.76,150.535,116.76,146.268"/>
	</g>
</g>
<g>
</g>
<g>
</g>
<g>
</g>
<g>
</g>
<g>
</g>
<g>
</g>
<g>
</g>
<g>
</g>
<g>
</g>
<g>
</g>
<g>
</g>
<g>
</g>
<g>
</g>
<g>
</g>
<g>
</g>
</svg>
