<?xml version="1.0" encoding="iso-8859-1"?>
<!-- Generator: Adobe Illustrator 19.0.0, SVG Export Plug-In . SVG Version: 6.00 Build 0)  -->
<svg version="1.1" id="Layer_1" xmlns="http://www.w3.org/2000/svg" xmlns:xlink="http://www.w3.org/1999/xlink" x="0px" y="0px"
	 viewBox="0 0 502.767 502.767" style="enable-background:new 0 0 502.767 502.767;" xml:space="preserve">
<g transform="translate(1)">
	<path style="fill:#FFDD09;" d="M107.695,8.393h117.508h151.082v393.652c0,5.875-3.357,10.911-7.554,14.269l-103.239,71.344
		c-14.269,10.072-32.734,10.072-46.164,0l-104.079-71.344c-5.036-3.357-7.554-8.393-7.554-14.269V8.393z"/>
	<path style="fill:#FD9808;" d="M351.105,8.393V422.19c0,2.518-0.839,5.036-1.679,7.554l19.305-13.429
		c5.036-3.357,7.554-8.393,7.554-14.269V8.393H351.105z"/>
	<path style="fill:#FFDD09;" d="M376.285,0v413.797c0,2.518-0.839,5.036-1.679,7.554l19.305-13.43
		c5.036-3.357,7.554-8.393,7.554-14.269V15.948C401.466,7.554,394.751,0,385.518,0C385.518,0,376.285,0,376.285,0z"/>
	<polygon style="fill:#1CD759;" points="132.875,243.41 351.105,243.41 351.105,176.262 132.875,176.262 	"/>
	<polygon style="fill:#15A143;" points="351.105,243.41 376.285,243.41 376.285,176.262 351.105,176.262 	"/>
	<path style="fill:#54C9FD;" d="M275.564,428.066c0-18.466-15.108-33.574-33.574-33.574s-33.574,15.108-33.574,33.574
		s15.108,33.574,33.574,33.574S275.564,446.531,275.564,428.066"/>
	<path style="fill:#FFFFFF;" d="M132.875,422.19V8.393h-25.18v393.652c0,5.875,3.357,10.911,7.554,14.269l19.305,13.429
		C133.715,427.226,132.875,424.708,132.875,422.19"/>
	<g>
		<path style="fill:#110E0E;" d="M241.99,502.767c-10.072,0-19.305-2.518-27.698-8.393L111.052,423.03
			c-7.554-4.197-11.751-12.59-11.751-20.984V8.393c0-5.036,3.357-8.393,8.393-8.393h50.361c5.036,0,8.393,3.357,8.393,8.393
			s-3.357,8.393-8.393,8.393h-41.967v385.259c0,2.518,1.679,5.875,4.197,6.715l103.239,71.344c10.911,7.554,26.02,7.554,36.931,0
			l103.239-71.344c2.518-1.679,4.197-4.197,4.197-7.554V16.787H225.203c-5.036,0-8.393-3.357-8.393-8.393S220.167,0,225.203,0
			h151.082c5.036,0,8.393,3.357,8.393,8.393v393.652c0,8.393-4.197,16.787-11.751,20.984l-103.239,71.344
			C261.295,500.249,252.062,502.767,241.99,502.767z"/>
		<path style="fill:#110E0E;" d="M241.99,470.033c-23.502,0-41.967-18.466-41.967-41.967c0-23.502,18.466-41.967,41.967-41.967
			s41.967,18.466,41.967,41.967C283.957,451.567,265.492,470.033,241.99,470.033z M241.99,402.885
			c-14.269,0-25.18,10.911-25.18,25.18s10.911,25.18,25.18,25.18s25.18-10.911,25.18-25.18S256.259,402.885,241.99,402.885z"/>
		<path style="fill:#110E0E;" d="M376.285,251.803h-268.59c-5.036,0-8.393-3.357-8.393-8.393v-67.148
			c0-5.036,3.357-8.393,8.393-8.393h268.59c5.036,0,8.393,3.357,8.393,8.393v67.148
			C384.679,248.446,381.321,251.803,376.285,251.803z M116.089,235.016h251.803v-50.361H116.089V235.016z"/>
		<path style="fill:#110E0E;" d="M200.023,8.393c0-5.036-3.357-8.393-8.393-8.393s-8.393,4.197-8.393,8.393s3.357,8.393,8.393,8.393
			S200.023,13.43,200.023,8.393"/>
	</g>
</g>
<g>
</g>
<g>
</g>
<g>
</g>
<g>
</g>
<g>
</g>
<g>
</g>
<g>
</g>
<g>
</g>
<g>
</g>
<g>
</g>
<g>
</g>
<g>
</g>
<g>
</g>
<g>
</g>
<g>
</g>
</svg>
