<?xml version="1.0" encoding="iso-8859-1"?>
<!-- Generator: Adobe Illustrator 19.0.0, SVG Export Plug-In . SVG Version: 6.00 Build 0)  -->
<svg version="1.1" id="Layer_1" xmlns="http://www.w3.org/2000/svg" xmlns:xlink="http://www.w3.org/1999/xlink" x="0px" y="0px"
	 viewBox="0 0 511.584 511.584" style="enable-background:new 0 0 511.584 511.584;" xml:space="preserve">
<g>
	<path style="fill:#39493F;" d="M114.551,0.004h282.483v413.934c0,6.091-3.134,11.75-8.298,14.98L280.174,503.97
		c-14.671,10.152-34.092,10.152-48.764,0l-108.562-75.052c-5.164-3.231-8.298-8.889-8.298-14.98V0.004z"/>
	<path style="fill:#BBB8C1;" d="M291.102,440.962c0-19.5-15.81-35.31-35.31-35.31s-35.31,15.81-35.31,35.31
		c0,19.5,15.81,35.31,35.31,35.31S291.102,460.462,291.102,440.962"/>
	<g>
		<path style="fill:#5E7767;" d="M344.068,459.798l44.668-30.888c5.164-3.222,8.298-8.881,8.298-14.972V0.004h-52.966V459.798z"/>
		<path style="fill:#5E7767;" d="M122.849,428.915l44.668,30.888V0h-52.966v413.943
			C114.551,420.034,117.685,425.693,122.849,428.915"/>
	</g>
	<path style="fill:#BBB8C1;" d="M211.654,202.617l44.138-44.138l44.138,44.138l-44.138,44.138L211.654,202.617z"/>
</g>
<g>
</g>
<g>
</g>
<g>
</g>
<g>
</g>
<g>
</g>
<g>
</g>
<g>
</g>
<g>
</g>
<g>
</g>
<g>
</g>
<g>
</g>
<g>
</g>
<g>
</g>
<g>
</g>
<g>
</g>
</svg>
