<?xml version="1.0" encoding="iso-8859-1"?>
<!-- Generator: Adobe Illustrator 19.0.0, SVG Export Plug-In . SVG Version: 6.00 Build 0)  -->
<svg version="1.1" id="Layer_1" xmlns="http://www.w3.org/2000/svg" xmlns:xlink="http://www.w3.org/1999/xlink" x="0px" y="0px"
	 viewBox="0 0 502.767 502.767" style="enable-background:new 0 0 502.767 502.767;" xml:space="preserve">
<path style="fill:#FFDD09;" d="M108.695,8.393h268.59v393.652c0,5.875-3.357,10.911-7.554,14.269l-103.239,71.344
	c-14.269,10.072-32.734,10.072-46.164,0l-104.079-71.344c-5.036-3.357-7.554-8.393-7.554-14.269V8.393z"/>
<path id="SVGCleanerId_0" style="fill:#54C9FD;" d="M276.564,428.066c0-18.466-15.108-33.574-33.574-33.574
	s-33.574,15.108-33.574,33.574s15.108,33.574,33.574,33.574S276.564,446.531,276.564,428.066"/>
<path style="fill:#FCC309;" d="M141.43,436.459l17.626,10.072V9.233h-25.18v413.797C133.875,428.066,137.233,433.941,141.43,436.459
	"/>
<path style="fill:#FFFFFF;" d="M133.875,422.19V8.393h-25.18v393.652c0,5.875,3.357,10.911,7.554,14.269l19.305,13.429
	C134.715,427.226,133.875,424.708,133.875,422.19"/>
<g>
	<path id="SVGCleanerId_0_1_" style="fill:#54C9FD;" d="M276.564,428.066c0-18.466-15.108-33.574-33.574-33.574
		s-33.574,15.108-33.574,33.574s15.108,33.574,33.574,33.574S276.564,446.531,276.564,428.066"/>
</g>
<path style="fill:#FCC309;" d="M326.925,446.531l17.626-9.233c5.036-3.357,7.554-8.393,7.554-14.269V9.233h-25.18V446.531z"/>
<path style="fill:#FD9808;" d="M352.105,8.393V422.19c0,2.518-0.839,5.036-1.679,7.554l19.305-13.429
	c5.036-3.357,7.554-8.393,7.554-14.269V8.393H352.105z"/>
<path style="fill:#FFDD09;" d="M377.285,0v413.797c0,2.518-0.839,5.036-1.679,7.554l19.305-13.43
	c5.036-3.357,7.554-8.393,7.554-14.269V13.43c0-6.715-5.875-13.43-13.429-13.43H377.285z"/>
<g>
	<polygon style="fill:#1CD759;" points="201.023,83.934 242.99,41.967 284.957,83.934 242.99,125.902 	"/>
	<polygon style="fill:#1CD759;" points="201.023,201.443 242.99,159.475 284.957,201.443 242.99,243.41 	"/>
	<polygon style="fill:#1CD759;" points="201.023,318.951 242.99,276.984 284.957,318.951 242.99,360.918 	"/>
</g>
<g>
	<path style="fill:#110E0E;" d="M242.99,502.767c-10.072,0-19.305-2.518-27.698-8.393L112.052,423.03
		c-7.554-4.197-11.751-12.59-11.751-20.984V208.997c0-5.036,3.357-8.393,8.393-8.393s8.393,3.357,8.393,8.393v193.049
		c0,2.518,1.679,5.875,4.197,6.715l103.239,71.344c10.911,7.554,26.02,7.554,36.931,0l103.239-71.344
		c2.518-1.679,4.197-4.197,4.197-7.554V16.787H117.089v125.902c0,5.036-3.357,8.393-8.393,8.393s-8.393-3.357-8.393-8.393V8.393
		c0-5.036,3.357-8.393,8.393-8.393h268.59c5.036,0,8.393,3.357,8.393,8.393v393.652c0,8.393-4.197,16.787-11.751,20.984
		l-103.239,71.344C262.295,500.249,253.062,502.767,242.99,502.767z"/>
	<path style="fill:#110E0E;" d="M117.089,176.262c0-5.036-3.357-8.393-8.393-8.393s-8.393,3.357-8.393,8.393
		s3.357,8.393,8.393,8.393S117.089,181.298,117.089,176.262"/>
	<path style="fill:#110E0E;" d="M242.99,470.033c-23.502,0-41.967-18.466-41.967-41.967c0-23.502,18.466-41.967,41.967-41.967
		s41.967,18.466,41.967,41.967C284.957,451.567,266.492,470.033,242.99,470.033z M242.99,402.885
		c-14.269,0-25.18,10.911-25.18,25.18s10.911,25.18,25.18,25.18s25.18-10.911,25.18-25.18S257.259,402.885,242.99,402.885z"/>
	<path style="fill:#110E0E;" d="M326.925,454.085c-1.679,0-2.518,0-4.197-0.839c-2.518-1.679-4.197-4.197-4.197-7.554V8.393
		c0-5.036,3.357-8.393,8.393-8.393h50.361c5.036,0,8.393,3.357,8.393,8.393v393.652c0,8.393-4.197,16.787-11.751,20.984
		l-41.967,29.377C330.282,453.246,328.603,454.085,326.925,454.085z M335.318,16.787v412.957l29.377-20.144
		c2.518-1.679,4.197-4.197,4.197-7.554V16.787H335.318z"/>
	<path style="fill:#110E0E;" d="M159.056,454.085c-1.679,0-3.357-0.839-5.036-1.679l-42.807-29.377
		c-6.715-4.197-10.911-12.59-10.911-20.984V217.39c0-5.036,3.357-8.393,8.393-8.393s8.393,3.357,8.393,8.393v184.656
		c0,2.518,1.679,5.875,4.197,6.715l29.377,20.984V16.787h-33.574v125.902c0,5.036-3.357,8.393-8.393,8.393s-8.393-3.357-8.393-8.393
		V8.393c0-5.036,3.357-8.393,8.393-8.393h50.361c5.036,0,8.393,3.357,8.393,8.393v437.298c0,3.357-1.679,5.875-4.197,7.554
		C161.574,453.246,160.734,454.085,159.056,454.085z"/>
	<path style="fill:#110E0E;" d="M242.99,134.295c-2.518,0-4.197-0.839-5.875-2.518L195.148,89.81c-3.357-3.357-3.357-8.393,0-11.751
		l41.967-41.967c3.357-3.357,8.393-3.357,11.751,0l41.967,41.967c3.357,3.357,3.357,8.393,0,11.751l-41.967,41.967
		C247.187,133.456,245.508,134.295,242.99,134.295z M212.774,83.934l30.216,30.216l30.216-30.216L242.99,53.718L212.774,83.934z"/>
	<path style="fill:#110E0E;" d="M242.99,251.803c-2.518,0-4.197-0.839-5.875-2.518l-41.967-41.967
		c-3.357-3.357-3.357-8.393,0-11.751l41.967-41.967c3.357-3.357,8.393-3.357,11.751,0l41.967,41.967
		c3.357,3.357,3.357,8.393,0,11.751l-41.967,41.967C247.187,250.964,245.508,251.803,242.99,251.803z M212.774,201.443
		l30.216,30.216l30.216-30.216l-30.216-30.216L212.774,201.443z"/>
	<path style="fill:#110E0E;" d="M242.99,369.311c-2.518,0-4.197-0.839-5.875-2.518l-41.967-41.967
		c-3.357-3.357-3.357-8.393,0-11.751l41.967-41.967c3.357-3.357,8.393-3.357,11.751,0l41.967,41.967
		c3.357,3.357,3.357,8.393,0,11.751l-41.967,41.967C247.187,368.472,245.508,369.311,242.99,369.311z M212.774,318.951
		l30.216,30.216l30.216-30.216l-30.216-30.216L212.774,318.951z"/>
</g>
<g>
</g>
<g>
</g>
<g>
</g>
<g>
</g>
<g>
</g>
<g>
</g>
<g>
</g>
<g>
</g>
<g>
</g>
<g>
</g>
<g>
</g>
<g>
</g>
<g>
</g>
<g>
</g>
<g>
</g>
</svg>
