<?xml version="1.0" encoding="iso-8859-1"?>
<!-- Generator: Adobe Illustrator 19.0.0, SVG Export Plug-In . SVG Version: 6.00 Build 0)  -->
<svg version="1.1" id="Layer_1" xmlns="http://www.w3.org/2000/svg" xmlns:xlink="http://www.w3.org/1999/xlink" x="0px" y="0px"
	 viewBox="0 0 512 512" style="enable-background:new 0 0 512 512;" xml:space="preserve">
<g transform="translate(1 1)">
	<path style="fill:#FFDD09;" d="M290.84,121.027L255,67.267l-35.84,52.907C167.107,198.68,103.96,249.88,33.133,306.2v119.467
		l8.533-6.827c64.853-52.053,123.733-97.28,173.227-167.253L255,195.267l40.107,56.32C344.6,321.56,403.48,366.787,468.333,418.84
		l8.533,6.827V306.2C406.04,249.88,342.893,198.68,290.84,121.027"/>
	<path style="fill:#FD9808;" d="M476.867,306.2v117.76c5.12,4.267,10.24,7.68,16.213,11.947l9.387,6.827V323.267"/>
	<path style="fill:#FFFFFF;" d="M7.533,323.267v119.467l9.387-6.827c5.12-3.413,10.24-7.68,16.213-11.947V306.2"/>
	<g>
		<path style="fill:#110E0E;" d="M502.467,451.267c-1.707,0-3.413-0.853-5.12-1.707l-9.387-6.827
			C414.573,390.68,348.867,328.387,292.547,257.56L255,208.92l-37.547,47.787C161.133,328.387,95.427,390.68,22.04,442.733
			l-9.387,6.827c-2.56,1.707-5.973,1.707-8.533,0.853C1.56,449.56-1,446.147-1,442.733V323.267c0-2.56,1.707-5.12,3.413-6.827
			c42.667-30.72,82.773-64.853,119.467-101.547c3.413-3.413,8.533-3.413,11.947,0s3.413,8.533,0,11.947
			c-35.84,36.693-75.947,70.827-117.76,100.693v98.133C86.893,375.32,150.04,314.733,203.8,246.467l44.373-56.32
			c3.413-4.267,10.24-4.267,13.653,0l44.373,56.32c53.76,68.267,116.907,128.853,187.733,180.053v-98.987
			c-78.507-56.32-147.627-124.587-205.653-202.24L255,81.773l-33.28,44.373c-12.8,17.067-26.453,33.28-40.107,49.493
			c-3.413,3.413-8.533,4.267-11.947,0.853s-4.267-8.533-0.853-11.947c13.653-15.36,26.453-32.427,39.253-48.64L248.173,63
			c1.707-2.56,4.267-4.267,6.827-4.267l0,0c2.56,0,5.12,0.853,6.827,3.413l40.107,52.907
			c58.027,76.8,127.147,145.067,205.653,201.387c2.56,1.707,3.413,4.267,3.413,6.827v119.467c0,3.413-1.707,5.973-4.267,7.68
			C505.027,451.267,504.173,451.267,502.467,451.267z"/>
		<path style="fill:#110E0E;" d="M161.133,195.267c0-5.12-3.413-8.533-8.533-8.533c-5.12,0-8.533,3.413-8.533,8.533
			c0,5.12,3.413,8.533,8.533,8.533C157.72,203.8,161.133,200.387,161.133,195.267"/>
	</g>
</g>
<g>
</g>
<g>
</g>
<g>
</g>
<g>
</g>
<g>
</g>
<g>
</g>
<g>
</g>
<g>
</g>
<g>
</g>
<g>
</g>
<g>
</g>
<g>
</g>
<g>
</g>
<g>
</g>
<g>
</g>
</svg>
