<?xml version="1.0" encoding="iso-8859-1"?>
<!-- Generator: Adobe Illustrator 19.0.0, SVG Export Plug-In . SVG Version: 6.00 Build 0)  -->
<svg version="1.1" id="Layer_1" xmlns="http://www.w3.org/2000/svg" xmlns:xlink="http://www.w3.org/1999/xlink" x="0px" y="0px"
	 viewBox="0 0 512 512" style="enable-background:new 0 0 512 512;" xml:space="preserve">
<g transform="translate(1 1)">
	<polygon style="fill:#FFDD09;" points="255,331.48 340.333,416.813 255,502.147 169.667,416.813 	"/>
	<polygon style="fill:#54C9FD;" points="218.307,416.813 255,380.12 291.693,416.813 255,454.36 	"/>
	<polygon style="fill:#FFDD09;" points="255,7.213 33.133,203.48 33.133,314.413 33.133,399.747 33.133,468.013 255,263.213 
		476.867,468.013 476.867,399.747 476.867,314.413 476.867,203.48 	"/>
	<polygon style="fill:#FD9808;" points="476.867,206.04 476.867,314.413 476.867,399.747 476.867,462.04 502.467,485.08 
		502.467,399.747 502.467,314.413 502.467,229.08 	"/>
	<polygon style="fill:#FFFFFF;" points="33.133,399.747 33.133,314.413 33.133,206.04 7.533,229.08 7.533,314.413 7.533,399.747 
		7.533,485.08 33.133,462.04 	"/>
	<g>
		<path style="fill:#110E0E;" d="M502.467,408.28c-1.707,0-4.267-0.853-5.973-2.56L255,189.827L13.507,406.573
			c-2.56,1.707-5.973,2.56-9.387,0.853C0.707,406.573-1,403.16-1,399.747v-85.333c0-2.56,0.853-5.12,2.56-5.973L249.027,86.573
			c3.413-2.56,8.533-2.56,11.093,0L507.587,308.44c1.707,1.707,2.56,4.267,2.56,5.973v85.333c0,3.413-1.707,6.827-5.12,7.68
			C505.027,408.28,503.32,408.28,502.467,408.28z M255,169.347c1.707,0,4.267,0.853,5.973,2.56l232.96,209.067V318.68L255,104.493
			L16.067,318.68v62.293l232.96-209.067C250.733,170.2,253.293,169.347,255,169.347z"/>
		<path style="fill:#110E0E;" d="M502.467,493.613c-1.707,0-4.267-0.853-5.973-2.56L255,275.16L13.507,491.907
			c-2.56,1.707-5.973,2.56-9.387,0.853C0.707,491.907-1,488.493-1,485.08v-85.333c0-2.56,0.853-5.12,2.56-5.973l247.467-221.867
			c3.413-2.56,8.533-2.56,11.093,0l247.467,221.867c1.707,1.707,2.56,4.267,2.56,5.973v85.333c0,3.413-1.707,6.827-5.12,7.68
			C505.027,493.613,503.32,493.613,502.467,493.613z M255,254.68c1.707,0,4.267,0.853,5.973,2.56l232.96,209.067v-62.293
			L255,189.827L16.067,404.013v62.293l232.96-209.067C250.733,255.533,253.293,254.68,255,254.68z"/>
		<path style="fill:#110E0E;" d="M255,510.68c-2.56,0-4.267-0.853-5.973-2.56l-85.333-85.333c-3.413-3.413-3.413-8.533,0-11.947
			l85.333-85.333c3.413-3.413,8.533-3.413,11.947,0l85.333,85.333c3.413,3.413,3.413,8.533,0,11.947l-85.333,85.333
			C259.267,509.827,257.56,510.68,255,510.68z M181.613,416.813L255,490.2l73.387-73.387L255,343.427L181.613,416.813z"/>
		<path style="fill:#110E0E;" d="M255,462.893c-2.56,0-4.267-0.853-5.973-2.56l-36.693-36.693c-3.413-3.413-3.413-8.533,0-11.947
			L249.027,375c3.413-3.413,8.533-3.413,11.947,0l36.693,36.693c1.707,1.707,2.56,3.413,2.56,5.973s-0.853,4.267-2.56,5.973
			l-36.693,36.693C259.267,462.04,257.56,462.893,255,462.893z M230.253,416.813l24.747,25.6l24.747-24.747L255,392.067
			L230.253,416.813z"/>
		<path style="fill:#110E0E;" d="M502.467,322.947c-1.707,0-4.267-0.853-5.973-2.56L255,104.493L13.507,321.24
			c-2.56,1.707-5.973,2.56-9.387,0.853C0.707,321.24-1,317.827-1,314.413V229.08c0-2.56,0.853-5.12,2.56-5.973l76.8-69.12
			c3.413-3.413,8.533-2.56,11.947,0.853s2.56,8.533-0.853,11.947l-73.387,66.56v62.293l232.96-209.067
			c3.413-2.56,8.533-2.56,11.093,0L493.933,295.64v-62.293L255,19.16L137.24,124.973c-3.413,3.413-8.533,2.56-11.947-0.853
			c-3.413-3.413-2.56-8.533,0.853-11.947L249.88,1.24c3.413-2.56,8.533-2.56,11.093,0L508.44,223.107
			c1.707,1.707,2.56,4.267,2.56,5.973v85.333c0,3.413-1.707,6.827-5.12,7.68C505.027,322.947,503.32,322.947,502.467,322.947z"/>
		<path style="fill:#110E0E;" d="M116.76,137.773c0-5.12-3.413-8.533-8.533-8.533s-8.533,3.413-8.533,8.533
			c0,5.12,3.413,8.533,8.533,8.533S116.76,142.04,116.76,137.773"/>
	</g>
</g>
<g>
</g>
<g>
</g>
<g>
</g>
<g>
</g>
<g>
</g>
<g>
</g>
<g>
</g>
<g>
</g>
<g>
</g>
<g>
</g>
<g>
</g>
<g>
</g>
<g>
</g>
<g>
</g>
<g>
</g>
</svg>
