<?xml version="1.0" encoding="iso-8859-1"?>
<!-- Generator: Adobe Illustrator 19.0.0, SVG Export Plug-In . SVG Version: 6.00 Build 0)  -->
<svg version="1.1" id="Layer_1" xmlns="http://www.w3.org/2000/svg" xmlns:xlink="http://www.w3.org/1999/xlink" x="0px" y="0px"
	 viewBox="0 0 512 512" style="enable-background:new 0 0 512 512;" xml:space="preserve">
<g transform="translate(1 1)">
	<path style="fill:#FFDD09;" d="M290.84,60.76L255,7l-35.84,52.907c-52.053,78.507-115.2,129.707-186.027,186.027V365.4v119.467
		l8.533-6.827c64.853-52.053,123.733-97.28,173.227-167.253L255,254.467l40.107,56.32C344.6,380.76,403.48,425.987,468.333,478.04
		l8.533,6.827V365.4V245.933C406.04,189.613,342.893,138.413,290.84,60.76"/>
	<path style="fill:#FFFFFF;" d="M7.533,263v119.467v119.467l9.387-6.827c5.12-3.413,10.24-7.68,16.213-11.947V365.4V245.933"/>
	<path style="fill:#FD9808;" d="M476.867,245.933V365.4v117.76c5.12,4.267,10.24,7.68,16.213,11.947l9.387,6.827V382.467V263"/>
	<g>
		<path style="fill:#110E0E;" d="M502.467,391c-1.707,0-3.413-0.853-5.12-1.707l-9.387-6.827
			c-73.387-52.053-139.093-114.347-195.413-185.173L255,148.653l-37.547,47.787C161.133,268.12,95.427,330.413,22.04,382.467
			l-9.387,6.827C10.093,391,6.68,391,4.12,390.147C0.707,389.293-1,385.88-1,382.467V263c0-2.56,1.707-5.12,3.413-6.827
			c42.667-30.72,82.773-64.853,119.467-101.547c3.413-3.413,8.533-3.413,11.947,0s3.413,8.533,0,11.947
			C97.987,203.267,57.88,237.4,16.067,267.267V365.4C86.893,315.053,150.04,254.467,203.8,186.2l44.373-56.32
			c3.413-4.267,10.24-4.267,13.653,0L306.2,186.2c53.76,68.267,116.907,128.853,187.733,180.053v-98.987
			c-78.507-56.32-147.627-124.587-205.653-202.24L255,21.507L221.72,65.88c-15.36,19.627-30.72,39.253-47.787,58.027
			c-3.413,3.413-8.533,4.267-11.947,0.853c-3.413-3.413-4.267-8.533-0.853-11.947c16.213-18.773,31.573-37.547,46.933-57.173
			l40.107-52.907c3.413-4.267,10.24-4.267,13.653,0l40.107,52.907c58.027,77.653,127.147,145.067,205.653,201.387
			c2.56,1.707,3.413,4.267,3.413,6.827V383.32c0,3.413-1.707,5.973-4.267,7.68C505.027,391,504.173,391,502.467,391z"/>
		<path style="fill:#110E0E;" d="M502.467,510.467c-1.707,0-3.413-0.853-5.12-1.707l-9.387-6.827
			C414.573,449.88,348.867,387.587,292.547,316.76L255,268.12l-37.547,47.787C161.133,387.587,95.427,449.88,22.04,501.933
			l-9.387,6.827c-2.56,1.707-5.973,1.707-8.533,0.853C0.707,508.76-1,505.347-1,501.933V382.467c0-2.56,1.707-5.12,3.413-6.827
			l9.387-6.827c72.533-51.2,137.387-112.64,192-182.613l44.373-56.32c3.413-4.267,10.24-4.267,13.653,0L306.2,186.2
			c54.613,69.973,119.467,130.56,191.147,182.613l9.387,6.827c2.56,1.707,4.267,4.267,4.267,6.827v119.467
			c0,3.413-2.56,5.973-5.12,7.68C505.027,510.467,504.173,510.467,502.467,510.467z M255,245.933c2.56,0,5.12,0.853,6.827,3.413
			l44.373,56.32c53.76,68.267,116.907,128.853,187.733,180.053v-98.987l-5.973-4.267
			c-73.387-52.053-139.093-114.347-195.413-185.173l0,0L255,148.653l-37.547,47.787C161.133,268.12,95.427,330.413,22.04,382.467
			l-5.973,4.267v98.133C86.893,434.52,150.04,373.933,203.8,305.667l44.373-56.32C249.88,247.64,252.44,245.933,255,245.933z"/>
		<path style="fill:#110E0E;" d="M156.013,139.267c0-5.12-3.413-8.533-8.533-8.533c-5.12,0-8.533,3.413-8.533,8.533
			c0,5.12,3.413,8.533,8.533,8.533C152.6,147.8,156.013,143.533,156.013,139.267"/>
	</g>
</g>
<g>
</g>
<g>
</g>
<g>
</g>
<g>
</g>
<g>
</g>
<g>
</g>
<g>
</g>
<g>
</g>
<g>
</g>
<g>
</g>
<g>
</g>
<g>
</g>
<g>
</g>
<g>
</g>
<g>
</g>
</svg>
