<?xml version="1.0" encoding="iso-8859-1"?>
<!-- Generator: Adobe Illustrator 19.0.0, SVG Export Plug-In . SVG Version: 6.00 Build 0)  -->
<svg version="1.1" id="Layer_1" xmlns="http://www.w3.org/2000/svg" xmlns:xlink="http://www.w3.org/1999/xlink" x="0px" y="0px"
	 viewBox="0 0 512 512" style="enable-background:new 0 0 512 512;" xml:space="preserve">
<g transform="translate(1 1)">
	<polygon style="fill:#FFDD09;" points="255,7 33.133,203.267 33.133,314.2 33.133,399.533 33.133,467.8 255,263 476.867,467.8 
		476.867,399.533 476.867,314.2 476.867,203.267 	"/>
	<polygon style="fill:#FD9808;" points="476.867,205.827 476.867,314.2 476.867,399.533 476.867,461.827 502.467,484.867 
		502.467,399.533 502.467,314.2 502.467,228.867 	"/>
	<polygon style="fill:#FFFFFF;" points="33.133,399.533 33.133,314.2 33.133,205.827 7.533,228.867 7.533,314.2 7.533,399.533 
		7.533,484.867 33.133,461.827 	"/>
	<polygon style="fill:#54C9FD;" points="255,314.2 285.72,375.64 348.867,382.467 304.493,433.667 314.733,501.933 255,467.8 
		195.267,501.933 205.507,433.667 161.133,382.467 224.28,375.64 	"/>
	<g>
		<path style="fill:#110E0E;" d="M502.467,322.733c-1.707,0-4.267-0.853-5.973-2.56L255,104.28L13.507,321.027
			c-2.56,1.707-5.973,2.56-9.387,0.853C0.707,321.027-1,317.613-1,314.2v-85.333c0-2.56,0.853-5.12,2.56-5.973l76.8-69.12
			c3.413-3.413,8.533-2.56,11.947,0.853s2.56,8.533-0.853,11.947l-73.387,66.56v62.293L249.027,86.36
			c3.413-2.56,8.533-2.56,11.093,0l233.813,209.067v-62.293L255,18.947L137.24,124.76c-3.413,3.413-8.533,2.56-11.947-0.853
			c-3.413-3.413-2.56-8.533,0.853-11.947L249.88,1.027c3.413-2.56,8.533-2.56,11.093,0L508.44,222.893
			c1.707,1.707,2.56,4.267,2.56,5.973V314.2c0,3.413-1.707,6.827-5.12,7.68C505.027,322.733,503.32,322.733,502.467,322.733z"/>
		<path style="fill:#110E0E;" d="M502.467,408.067c-1.707,0-4.267-0.853-5.973-2.56L255,189.613L13.507,406.36
			c-2.56,1.707-5.973,2.56-9.387,0.853C0.707,406.36-1,402.947-1,399.533V314.2c0-2.56,0.853-5.12,2.56-5.973L249.027,86.36
			c3.413-2.56,8.533-2.56,11.093,0l247.467,221.867c1.707,1.707,2.56,4.267,2.56,5.973v85.333c0,3.413-1.707,6.827-5.12,7.68
			C505.027,408.067,503.32,408.067,502.467,408.067z M255,169.133c1.707,0,4.267,0.853,5.973,2.56l232.96,209.067v-62.293
			L255,104.28L16.067,318.467v62.293l232.96-209.067C250.733,169.987,253.293,169.133,255,169.133z"/>
		<path style="fill:#110E0E;" d="M502.467,493.4c-1.707,0-4.267-0.853-5.973-2.56L255,274.947L13.507,491.693
			c-2.56,1.707-5.973,2.56-9.387,0.853C0.707,491.693-1,488.28-1,484.867v-85.333c0-2.56,0.853-5.12,2.56-5.973l247.467-221.867
			c3.413-2.56,8.533-2.56,11.093,0L507.587,393.56c1.707,1.707,2.56,4.267,2.56,5.973v85.333c0,3.413-1.707,6.827-5.12,7.68
			C505.027,493.4,503.32,493.4,502.467,493.4z M255,254.467c1.707,0,4.267,0.853,5.973,2.56l232.96,209.067V403.8L255,189.613
			L16.067,403.8v62.293l232.96-209.067C250.733,255.32,253.293,254.467,255,254.467z"/>
		<path style="fill:#110E0E;" d="M314.733,510.467c-1.707,0-2.56,0-4.267-0.853L255,478.04l-55.467,31.573
			c-2.56,1.707-5.973,1.707-9.387,0c-2.56-1.707-4.267-5.12-3.413-8.533l10.24-64.853L155.16,388.44
			c-1.707-2.56-2.56-5.973-1.707-8.533c0.853-2.56,4.267-5.12,6.827-5.12l58.88-5.973l28.16-57.173c1.707-2.56,4.267-5.12,7.68-5.12
			l0,0c3.413,0,5.973,1.707,7.68,5.12l28.16,57.173l58.88,5.973c3.413,0,5.973,2.56,6.827,5.12c0.853,2.56,0.853,5.973-1.707,8.533
			l-41.813,47.787l10.24,64.853c0.853,3.413-0.853,6.827-3.413,8.533C318.147,510.467,316.44,510.467,314.733,510.467z M255,459.267
			c1.707,0,2.56,0,4.267,0.853l44.373,25.6l-7.68-51.2c0-2.56,0-5.12,1.707-6.827l34.133-38.4l-46.933-5.12
			c-2.56,0-5.12-1.707-6.827-5.12L255,333.827l-23.04,46.08c-1.707,2.56-4.267,4.267-6.827,5.12l-46.933,4.267l34.133,38.4
			c1.707,1.707,2.56,4.267,1.707,6.827l-7.68,51.2l44.373-25.6C252.44,460.12,253.293,459.267,255,459.267z"/>
		<path style="fill:#110E0E;" d="M116.76,137.56c0-5.12-3.413-8.533-8.533-8.533s-8.533,3.413-8.533,8.533
			c0,5.12,3.413,8.533,8.533,8.533S116.76,141.827,116.76,137.56"/>
	</g>
</g>
<g>
</g>
<g>
</g>
<g>
</g>
<g>
</g>
<g>
</g>
<g>
</g>
<g>
</g>
<g>
</g>
<g>
</g>
<g>
</g>
<g>
</g>
<g>
</g>
<g>
</g>
<g>
</g>
<g>
</g>
</svg>
